<svg width="26" height="26" viewBox="0 0 26 26" fill="none" xmlns="http://www.w3.org/2000/svg"><path opacity="0.4" d="M22.2085 11.0392H19.0777C16.5102 11.0392 14.4193 8.94841 14.4193 6.38091V3.25008C14.4193 2.65425 13.9318 2.16675 13.336 2.16675H8.74266C5.406 2.16675 2.7085 4.33342 2.7085 8.20092V17.7992C2.7085 21.6667 5.406 23.8334 8.74266 23.8334H17.2577C20.5943 23.8334 23.2918 21.6667 23.2918 17.7992V12.1226C23.2918 11.5267 22.8043 11.0392 22.2085 11.0392Z" fill="#F4D7E1"></path><path d="M17.1167 2.3942C16.6725 1.95003 15.9033 2.25337 15.9033 2.87087V6.6517C15.9033 8.23337 17.2467 9.5442 18.8825 9.5442C19.9117 9.55503 21.3417 9.55503 22.5658 9.55503C23.1833 9.55503 23.5083 8.8292 23.075 8.39587C21.515 6.82503 18.72 3.99753 17.1167 2.3942Z" fill="#F4D7E1"></path><path d="M14.625 14.8958H8.125C7.68083 14.8958 7.3125 14.5274 7.3125 14.0833C7.3125 13.6391 7.68083 13.2708 8.125 13.2708H14.625C15.0692 13.2708 15.4375 13.6391 15.4375 14.0833C15.4375 14.5274 15.0692 14.8958 14.625 14.8958Z" fill="#F4D7E1"></path><path d="M12.4583 19.2292H8.125C7.68083 19.2292 7.3125 18.8609 7.3125 18.4167C7.3125 17.9726 7.68083 17.6042 8.125 17.6042H12.4583C12.9025 17.6042 13.2708 17.9726 13.2708 18.4167C13.2708 18.8609 12.9025 19.2292 12.4583 19.2292Z" fill="#F4D7E1"></path></svg>