<svg width="26" height="26" viewBox="0 0 26 26" fill="none" xmlns="http://www.w3.org/2000/svg"><g clip-path="url(#clip0_76_170)"><path d="M9.2502 6.62476H5.4502C5.03565 6.62476 4.7002 6.96021 4.7002 7.37476C4.7002 7.78931 5.03565 8.12476 5.4502 8.12476H9.2502C9.66475 8.12476 10.0002 7.78931 10.0002 7.37476C10.0002 6.96021 9.66475 6.62476 9.2502 6.62476Z" fill="white"></path><path d="M9.2502 12.6248H5.4502C5.03565 12.6248 4.7002 12.9602 4.7002 13.3748C4.7002 13.7893 5.03565 14.1248 5.4502 14.1248H9.2502C9.66475 14.1248 10.0002 13.7893 10.0002 13.3748C10.0002 12.9602 9.66475 12.6248 9.2502 12.6248Z" fill="white"></path><path d="M7.7502 9.62476H3.9502C3.53565 9.62476 3.2002 9.96021 3.2002 10.3748C3.2002 10.7893 3.53565 11.1248 3.9502 11.1248H7.7502C8.16475 11.1248 8.5002 10.7893 8.5002 10.3748C8.5002 9.96021 8.16475 9.62476 7.7502 9.62476Z" fill="white"></path><path d="M27.3 13.3727H22.75V10.3727C22.75 9.05544 21.1386 8.36184 20.189 9.31264L14.1895 15.3122C13.6035 15.8981 13.6035 16.8473 14.1895 17.4333L17.6289 20.8727L13.4395 25.0622C12.8535 25.6481 12.8535 26.5973 13.4395 27.1833C14.0254 27.7692 14.9746 27.7692 15.5606 27.1833L20.8106 21.9333C21.3965 21.3473 21.3965 20.3981 20.8106 19.8122L17.3711 16.3727L19.75 13.9938V14.8727C19.75 15.7011 20.4217 16.3727 21.25 16.3727H27.3C28.1284 16.3727 28.8 15.7011 28.8 14.8727C28.8 14.0444 28.1284 13.3727 27.3 13.3727Z" fill="white"></path><path d="M17.2071 5.75144C16.6109 5.35519 15.8199 5.43359 15.3145 5.93894L11.1895 10.0639C10.6035 10.6499 10.6035 11.5991 11.1895 12.185C11.7754 12.771 12.7247 12.7709 13.3106 12.185L16.5662 8.92939L17.6629 9.71939L19.1282 8.25409C19.3733 8.00899 19.6624 7.81874 19.9786 7.67019L17.2071 5.75144Z" fill="white"></path><path d="M13.1289 18.4947C12.7489 18.1147 12.4952 17.6469 12.3614 17.1411L4.43946 25.0631C3.85351 25.649 3.85351 26.5982 4.43946 27.1842C5.02536 27.7701 5.97461 27.7701 6.56056 27.1842L14.1895 19.5553L13.1289 18.4947Z" fill="white"></path><path d="M23.5 8.87476C24.7426 8.87476 25.75 7.8674 25.75 6.62476C25.75 5.38212 24.7426 4.37476 23.5 4.37476C22.2574 4.37476 21.25 5.38212 21.25 6.62476C21.25 7.8674 22.2574 8.87476 23.5 8.87476Z" fill="white"></path></g><defs><clipPath id="clip0_76_170"><rect width="25.6" height="25.6" fill="white" transform="translate(3.2002 3.19995)"></rect></clipPath></defs></svg>