<svg width="26" height="26" viewBox="0 0 26 26" fill="none" xmlns="http://www.w3.org/2000/svg"><path opacity="0.4" d="M23.8332 8.46092V15.0584L22.0673 13.5417C21.2223 12.8159 19.8573 12.8159 19.0123 13.5417L14.5057 17.4093C13.6607 18.1351 12.2957 18.1351 11.4507 17.4093L11.0823 17.1059C10.3132 16.4342 9.089 16.3692 8.22234 16.9542L2.89234 20.5293L2.77317 20.6159C2.37234 19.7493 2.1665 18.7201 2.1665 17.5393V8.46092C2.1665 4.51758 4.51734 2.16675 8.46067 2.16675H17.539C21.4823 2.16675 23.8332 4.51758 23.8332 8.46092Z" fill="#F4D7E1"></path><path d="M9.75021 11.245C11.1742 11.245 12.3285 10.0907 12.3285 8.66671C12.3285 7.24274 11.1742 6.08838 9.75021 6.08838C8.32623 6.08838 7.17188 7.24274 7.17188 8.66671C7.17188 10.0907 8.32623 11.245 9.75021 11.245Z" fill="#F4D7E1"></path><path d="M23.8334 15.0584V17.5392C23.8334 21.4825 21.4826 23.8334 17.5393 23.8334H8.46094C5.69844 23.8334 3.7051 22.6742 2.77344 20.6159L2.8926 20.5292L8.2226 16.9542C9.08927 16.3692 10.3134 16.4342 11.0826 17.1059L11.4509 17.4092C12.2959 18.135 13.6609 18.135 14.5059 17.4092L19.0126 13.5417C19.8576 12.8159 21.2226 12.8159 22.0676 13.5417L23.8334 15.0584Z" fill="#F4D7E1"></path></svg>